<svg width="40" height="40" viewBox="0 0 40 40" fill="none" xmlns="http://www.w3.org/2000/svg">
<rect width="40" height="40" rx="6" fill="url(#paint0_linear_6_2)"/>
<g filter="url(#filter0_d_6_2)">
<g clip-path="url(#clip0_6_2)">
<path d="M6 19.44C6 13.1043 6 9.93648 7.96824 7.96824C9.93648 6 13.1043 6 19.44 6H20.56C26.8957 6 30.0635 6 32.0318 7.96824C34 9.93648 34 13.1043 34 19.44V20.56C34 26.8957 34 30.0635 32.0318 32.0318C30.0635 34 26.8957 34 20.56 34H19.44C13.1043 34 9.93648 34 7.96824 32.0318C6 30.0635 6 26.8957 6 20.56V19.44Z" fill="#0077FF"/>
<path d="M20.8983 26.1717C14.5167 26.1717 10.8767 21.7967 10.7251 14.5167H13.9217C14.0267 19.8601 16.3833 22.1234 18.25 22.5901V14.5167H21.2601V19.1251C23.1035 18.9267 25.0399 16.8267 25.6932 14.5167H28.7033C28.2016 17.3634 26.1016 19.4634 24.6083 20.3267C26.1016 21.0267 28.4934 22.8584 29.4034 26.1717H26.0899C25.3783 23.9551 23.6051 22.2401 21.2601 22.0067V26.1717H20.8983Z" fill="white"/>
</g>
</g>
<rect x="0.75" y="0.75" width="38.5" height="38.5" rx="5.25" stroke="white" stroke-opacity="0.15" stroke-width="1.5"/>
<defs>
<filter id="filter0_d_6_2" x="2" y="2" width="36" height="36" filterUnits="userSpaceOnUse" color-interpolation-filters="sRGB">
<feFlood flood-opacity="0" result="BackgroundImageFix"/>
<feColorMatrix in="SourceAlpha" type="matrix" values="0 0 0 0 0 0 0 0 0 0 0 0 0 0 0 0 0 0 127 0" result="hardAlpha"/>
<feOffset/>
<feGaussianBlur stdDeviation="2"/>
<feComposite in2="hardAlpha" operator="out"/>
<feColorMatrix type="matrix" values="0 0 0 0 0 0 0 0 0 0 0 0 0 0 0 0 0 0 0.25 0"/>
<feBlend mode="normal" in2="BackgroundImageFix" result="effect1_dropShadow_6_2"/>
<feBlend mode="normal" in="SourceGraphic" in2="effect1_dropShadow_6_2" result="shape"/>
</filter>
<linearGradient id="paint0_linear_6_2" x1="20" y1="0" x2="20" y2="40" gradientUnits="userSpaceOnUse">
<stop stop-color="#082444"/>
<stop offset="1" stop-color="#040C16"/>
</linearGradient>
<clipPath id="clip0_6_2">
<rect width="28" height="28" fill="white" transform="translate(6 6)"/>
</clipPath>
</defs>
</svg>
